<svg width="320" height="380" viewBox="0 0 320 380" fill="none" xmlns="http://www.w3.org/2000/svg">
  <path d="M160 18L282 72V168C282 258 226 333 160 362C94 333 38 258 38 168V72L160 18Z" fill="#163F7F" stroke="#B88952" stroke-width="10"/>
  <path d="M82 202C125 198 139 152 160 88C181 152 195 198 238 202C203 215 182 243 160 294C138 243 117 215 82 202Z" fill="#B7C9FF"/>
  <path d="M116 180C138 176 149 145 160 109C171 145 182 176 204 180C184 190 171 211 160 242C149 211 136 190 116 180Z" fill="#B88952"/>
</svg>
