<svg width="320" height="380" viewBox="0 0 320 380" fill="none" xmlns="http://www.w3.org/2000/svg">
  <path d="M160 18L282 72V168C282 258 226 333 160 362C94 333 38 258 38 168V72L160 18Z" fill="#0D5138" stroke="#C7D0CE" stroke-width="10"/>
  <path d="M203 96C157 82 111 112 113 154C114 186 148 194 172 206C195 218 201 246 177 262C151 280 115 262 102 239C107 286 164 310 203 281C239 254 232 209 195 190C169 177 145 168 145 146C145 124 175 111 203 128V96Z" fill="#C7D0CE"/>
  <circle cx="204" cy="127" r="5" fill="#8BD8B0"/>
</svg>
