<svg width="320" height="380" viewBox="0 0 320 380" fill="none" xmlns="http://www.w3.org/2000/svg">
  <path d="M160 18L282 72V168C282 258 226 333 160 362C94 333 38 258 38 168V72L160 18Z" fill="#8B6A08" stroke="#F3D56B" stroke-width="10"/>
  <path d="M92 224C101 164 148 116 216 111C205 132 207 151 228 166C204 171 192 187 193 215C168 198 141 206 126 236C118 225 106 221 92 224Z" fill="#1A1A1A"/>
  <path d="M126 236C151 269 205 263 228 219C202 224 183 217 169 196C154 213 141 226 126 236Z" fill="#F3D56B"/>
  <circle cx="210" cy="143" r="6" fill="#F3D56B"/>
</svg>
