<svg width="320" height="380" viewBox="0 0 320 380" fill="none" xmlns="http://www.w3.org/2000/svg">
  <path d="M160 18L282 72V168C282 258 226 333 160 362C94 333 38 258 38 168V72L160 18Z" fill="#6F1418" stroke="#F5C45E" stroke-width="10"/>
  <path d="M96 256C126 236 134 194 116 160C149 171 165 143 158 111C190 132 200 162 190 190C217 185 236 165 240 137C264 199 222 272 160 294C137 286 115 273 96 256Z" fill="#F5C45E"/>
  <path d="M132 95C160 112 171 137 164 165C147 151 132 126 132 95Z" fill="#D33A3F"/>
</svg>
